# xmcd CD database file
#
# Track frame offsets:
#	150
#	17742
#	39891
#	57321
#
# Disc length: 1054 seconds
#
# Revision: 2
# Processed by: cddbd v1.5.2PL0 Copyright (c) Steve Scherf et al.
# Submitted via: CDex 1.70beta3
#
DISCID=27041c04
DTITLE=放課後ティータイム - Singing!
DYEAR=2011
DGENRE=Anime
TTITLE0=Singing!
TTITLE1=おはよう、またあした
TTITLE2=Singing! (Instrumental)
TTITLE3=おはよう、またあした (Instrumental)
EXTD=YEAR: 2011
EXTT0=
EXTT1=
EXTT2=
EXTT3=
PLAYORDER=
